<?xml version="1.0" standalone="no"?>
<!DOCTYPE svg PUBLIC "-//W3C//DTD SVG 20010904//EN"
 "http://www.w3.org/TR/2001/REC-SVG-20010904/DTD/svg10.dtd">
<svg version="1.0" xmlns="http://www.w3.org/2000/svg"
 width="500.000000pt" height="500.000000pt" viewBox="0 0 500.000000 500.000000"
 preserveAspectRatio="xMidYMid meet">

<g transform="translate(0.000000,500.000000) scale(0.100000,-0.100000)"
fill="#000000" stroke="none">
<path d="M0 2500 l0 -2500 2500 0 2500 0 0 2500 0 2500 -2500 0 -2500 0 0
-2500z m3370 1638 l0 -233 -230 -105 -230 -105 3 -1234 2 -1234 228 -106 227
-105 -2 -230 -3 -231 -865 0 -865 0 -3 231 -2 230 227 106 228 105 2 1234 2
1234 -229 105 -230 105 0 233 0 232 870 0 870 0 0 -232z"/>
</g>
</svg>
