<svg xmlns="http://www.w3.org/2000/svg" width="73" height="72" fill="none" viewBox="0 0 73 72"><rect width="72" height="72" x=".875" fill="url(#paint0_linear_1821_32067)" fill-opacity=".1" rx="36"/><path fill="#FFA600" d="M24.375 25.2777C24.375 24.2611 25.1991 23.437 26.2157 23.437H48.7644C49.781 23.437 50.6051 24.2611 50.6051 25.2777V28.9591H24.375V25.2777Z"/><path fill="#FFEFA9" d="M24.375 28.9587H50.6051V47.5959C50.6051 48.6125 49.781 49.4366 48.7644 49.4366H26.2157C25.1991 49.4366 24.375 48.6125 24.375 47.5959V28.9587Z"/><circle cx="27.14" cy="26.198" r=".46" fill="#fff"/><circle cx="29.437" cy="26.198" r=".46" fill="#fff"/><circle cx="31.734" cy="26.198" r=".46" fill="#fff"/><rect width="20" height="20" x="37.875" y="33" fill="#fff" rx="10"/><path fill="#E3BE1B" d="M52.1782 42.5542C52.7049 42.8583 52.7049 43.6186 52.1782 43.9227L45.6602 47.6859C45.1335 47.9899 44.4751 47.6098 44.4751 47.0016L44.4751 39.4753C44.4751 38.8671 45.1335 38.487 45.6602 38.7911L52.1782 42.5542Z"/><defs><linearGradient id="paint0_linear_1821_32067" x1="53.375" x2="22.375" y1="-1" y2="75.5" gradientUnits="userSpaceOnUse"><stop stop-color="#FFD000"/><stop offset="1" stop-color="#30F"/></linearGradient></defs></svg>