<svg xmlns="http://www.w3.org/2000/svg" width="18" height="18" fill="none" viewBox="0 0 18 18"><path fill="#E53C58" fill-rule="evenodd" d="M5.58112 0.557678C5.38221 0.557678 5.19144 0.636696 5.05079 0.777348L0.777287 5.05085C0.636635 5.1915 0.557617 5.38227 0.557617 5.58118V12.4188C0.557617 12.6177 0.636635 12.8085 0.777287 12.9491L5.05079 17.2226C5.19144 17.3633 5.38221 17.4423 5.58112 17.4423H12.4187C12.6176 17.4423 12.8084 17.3633 12.9491 17.2226L17.2226 12.9491C17.3632 12.8085 17.4422 12.6177 17.4422 12.4188V5.58118C17.4422 5.38227 17.3632 5.1915 17.2226 5.05085L12.9491 0.777348C12.8084 0.636696 12.6176 0.557678 12.4187 0.557678H5.58112ZM9.74993 5.58118C9.74993 5.16697 9.41414 4.83118 8.99993 4.83118C8.58572 4.83118 8.24993 5.16697 8.24993 5.58118V9.85468C8.24993 10.2689 8.58572 10.6047 8.99993 10.6047C9.41414 10.6047 9.74993 10.2689 9.74993 9.85468V5.58118ZM9.85463 12.4188C9.85463 12.8908 9.47197 13.2735 8.99993 13.2735C8.52789 13.2735 8.14523 12.8908 8.14523 12.4188C8.14523 11.9467 8.52789 11.5641 8.99993 11.5641C9.47197 11.5641 9.85463 11.9467 9.85463 12.4188Z" clip-rule="evenodd"/></svg>