<svg xmlns="http://www.w3.org/2000/svg" width="73" height="72" fill="none" viewBox="0 0 73 72"><rect width="72" height="72" x=".625" fill="url(#paint0_linear_1821_32079)" fill-opacity=".1" rx="36"/><path fill="#E736FF" d="M23.125 24.3318C23.125 23.2853 23.9733 22.437 25.0197 22.437H48.2303C49.2767 22.437 50.125 23.2853 50.125 24.3317V28.1212H23.125V24.3318Z" opacity=".2"/><path fill="#fff" d="M23.125 28.1211H50.125V47.3053C50.125 48.3517 49.2767 49.2 48.2303 49.2H25.0197C23.9733 49.2 23.125 48.3517 23.125 47.3053V28.1211Z"/><circle cx="25.97" cy="25.279" r=".474" fill="#fff"/><circle cx="28.337" cy="25.279" r=".474" fill="#fff"/><circle cx="30.704" cy="25.279" r=".474" fill="#fff"/><rect width="11.195" height="1.976" x="25.762" y="32.315" fill="#E736FF" rx=".711"/><rect width="21.338" height="1.773" x="25.492" y="36.925" fill="#E736FF" rx=".711"/><rect width="6.192" height="1.773" x="25.492" y="41.332" fill="#E736FF" rx=".711"/><defs><linearGradient id="paint0_linear_1821_32079" x1="36.625" x2="36.625" y1="0" y2="72" gradientUnits="userSpaceOnUse"><stop stop-color="#8236FF"/><stop offset="1" stop-color="#FFC736"/></linearGradient></defs></svg>