<svg xmlns="http://www.w3.org/2000/svg" width="73" height="72" fill="none" viewBox="0 0 73 72"><rect width="72" height="72" x=".375" fill="url(#paint0_linear_1821_32095)" fill-opacity=".1" rx="36"/><path fill="#C4C4C4" d="M23.875 25.2777C23.875 24.2611 24.6991 23.437 25.7157 23.437H48.2644C49.281 23.437 50.1051 24.2611 50.1051 25.2777V28.9591H23.875V25.2777Z"/><path fill="#4A4A4A" d="M23.875 28.9587H50.1051V47.5959C50.1051 48.6125 49.281 49.4366 48.2644 49.4366H25.7157C24.6991 49.4366 23.875 48.6125 23.875 47.5959V28.9587Z"/><circle cx="26.64" cy="26.198" r=".46" fill="#4A4A4A"/><circle cx="28.937" cy="26.198" r=".46" fill="#4A4A4A"/><circle cx="31.234" cy="26.198" r=".46" fill="#4A4A4A"/><path fill="#fff" d="M39.9972 37.7426C40.4186 37.9858 40.4186 38.594 39.9972 38.8373L34.7828 41.8479C34.3615 42.0911 33.8347 41.787 33.8347 41.3005L33.8347 35.2794C33.8347 34.7928 34.3615 34.4887 34.7828 34.732L39.9972 37.7426Z"/><path fill="#C4C4C4" d="M22.875 24.374C22.875 23.3042 23.7422 22.437 24.812 22.437H48.5398C49.6096 22.437 50.4768 23.3042 50.4768 24.374V28.2479H22.875V24.374Z"/><path fill="#132401" d="M22.875 28.248H50.4768V47.8598C50.4768 48.9296 49.6096 49.7968 48.5398 49.7968H24.812C23.7422 49.7968 22.875 48.9296 22.875 47.8598V28.248Z"/><circle cx="25.781" cy="25.343" r=".484" fill="#4A4A4A"/><circle cx="28.203" cy="25.343" r=".484" fill="#4A4A4A"/><circle cx="30.621" cy="25.343" r=".484" fill="#4A4A4A"/><rect width="6.537" height="1.453" x="25.297" y="32.742" fill="#FF2E9A" rx=".726"/><rect width="6.537" height="1.453" x="32.316" y="32.742" fill="#B62EFF" rx=".726"/><rect width="4.116" height="1.453" x="39.34" y="32.742" fill="#2EFFD9" rx=".726"/><rect width="4.039" height="1.346" x="26.645" y="38.447" fill="#FF702E" rx=".673"/><rect width="7.907" height="1.453" x="31.355" y="38.447" fill="#FFD92E" rx=".726"/><rect width="7.907" height="1.453" x="39.938" y="38.447" fill="#99FF2E" rx=".726"/><defs><linearGradient id="paint0_linear_1821_32095" x1="36.375" x2="36.375" y1="0" y2="72" gradientUnits="userSpaceOnUse"><stop stop-color="#99FF2E"/><stop offset="1" stop-color="#3E2EFF"/></linearGradient></defs></svg>