<svg xmlns="http://www.w3.org/2000/svg" width="8" height="15" fill="none" viewBox="0 0 8 15"><path fill="#B5B6BC" d="M0.635818 14.4895C0.521615 14.4422 0.424005 14.3621 0.35533 14.2593C0.286655 14.1566 0.249999 14.0357 0.249999 13.9121L0.25 1.41211C0.249999 1.2885 0.286656 1.16766 0.355333 1.06488C0.42401 0.962095 0.521623 0.881987 0.635829 0.834682C0.750035 0.787378 0.875704 0.775003 0.996943 0.799121C1.11818 0.823239 1.22955 0.882768 1.31695 0.97018L7.56693 7.22018C7.62497 7.27821 7.67101 7.34711 7.70242 7.42294C7.73383 7.49876 7.75 7.58004 7.75 7.66211C7.75 7.74419 7.73383 7.82546 7.70242 7.90129C7.67101 7.97711 7.62497 8.04601 7.56693 8.10404L1.31695 14.354C1.22954 14.4415 1.11818 14.501 0.996937 14.5251C0.875696 14.5492 0.750025 14.5368 0.635818 14.4895Z"/></svg>