<svg width="73" height="72" viewBox="0 0 73 72" fill="none" xmlns="http://www.w3.org/2000/svg">
<rect x="0.375" width="72" height="72" rx="36" fill="url(#paint0_linear_1821_32095)" fill-opacity="0.1"/>
<path d="M23.875 25.2777C23.875 24.2611 24.6991 23.437 25.7157 23.437H48.2644C49.281 23.437 50.1051 24.2611 50.1051 25.2777V28.9591H23.875V25.2777Z" fill="#C4C4C4"/>
<path d="M23.875 28.9587H50.1051V47.5959C50.1051 48.6125 49.281 49.4366 48.2644 49.4366H25.7157C24.6991 49.4366 23.875 48.6125 23.875 47.5959V28.9587Z" fill="#4A4A4A"/>
<circle cx="26.6399" cy="26.1982" r="0.460177" fill="#4A4A4A"/>
<circle cx="28.9367" cy="26.1982" r="0.460177" fill="#4A4A4A"/>
<circle cx="31.2336" cy="26.1982" r="0.460177" fill="#4A4A4A"/>
<path d="M39.9972 37.7426C40.4186 37.9858 40.4186 38.594 39.9972 38.8373L34.7828 41.8479C34.3615 42.0911 33.8347 41.787 33.8347 41.3005L33.8347 35.2794C33.8347 34.7928 34.3615 34.4887 34.7828 34.732L39.9972 37.7426Z" fill="white"/>
<path d="M22.875 24.374C22.875 23.3042 23.7422 22.437 24.812 22.437H48.5398C49.6096 22.437 50.4768 23.3042 50.4768 24.374V28.2479H22.875V24.374Z" fill="#C4C4C4"/>
<path d="M22.875 28.248H50.4768V47.8598C50.4768 48.9296 49.6096 49.7968 48.5398 49.7968H24.812C23.7422 49.7968 22.875 48.9296 22.875 47.8598V28.248Z" fill="#132401"/>
<circle cx="25.7811" cy="25.3429" r="0.484242" fill="#4A4A4A"/>
<circle cx="28.203" cy="25.3429" r="0.484242" fill="#4A4A4A"/>
<circle cx="30.621" cy="25.3429" r="0.484242" fill="#4A4A4A"/>
<rect x="25.2969" y="32.7422" width="6.53726" height="1.45272" rx="0.726362" fill="#FF2E9A"/>
<rect x="32.3164" y="32.7422" width="6.53726" height="1.45272" rx="0.726362" fill="#B62EFF"/>
<rect x="39.3398" y="32.7422" width="4.11605" height="1.45272" rx="0.726362" fill="#2EFFD9"/>
<rect x="26.6445" y="38.4468" width="4.03928" height="1.34643" rx="0.673214" fill="#FF702E"/>
<rect x="31.3555" y="38.4468" width="7.90731" height="1.45272" rx="0.726362" fill="#FFD92E"/>
<rect x="39.9375" y="38.4468" width="7.90731" height="1.45272" rx="0.726362" fill="#99FF2E"/>
<defs>
<linearGradient id="paint0_linear_1821_32095" x1="36.375" y1="0" x2="36.375" y2="72" gradientUnits="userSpaceOnUse">
<stop stop-color="#99FF2E"/>
<stop offset="1" stop-color="#3E2EFF"/>
</linearGradient>
</defs>
</svg>
