<svg width="73" height="72" viewBox="0 0 73 72" fill="none" xmlns="http://www.w3.org/2000/svg">
<rect x="0.125" width="72" height="72" rx="36" fill="url(#paint0_linear_1821_32120)" fill-opacity="0.1"/>
<path opacity="0.5" d="M22.625 24.3485C22.625 23.2928 23.4808 22.437 24.5365 22.437H47.9524C49.0081 22.437 49.8639 23.2928 49.8639 24.3485V28.1715H22.625V24.3485Z" fill="white"/>
<path d="M22.625 28.1714H49.8639V47.5254C49.8639 48.5811 49.0081 49.4369 47.9524 49.4369H24.5365C23.4808 49.4369 22.625 48.5811 22.625 47.5254V28.1714Z" fill="white"/>
<circle cx="25.4935" cy="25.3043" r="0.477876" fill="#4A4A4A"/>
<circle cx="27.8802" cy="25.3043" r="0.477876" fill="#4A4A4A"/>
<circle cx="30.2708" cy="25.3043" r="0.477876" fill="#4A4A4A"/>
<path d="M45.4583 46.2967C45.4583 45.5934 45.6361 44.9231 45.9917 44.2857C46.3694 43.6264 46.8139 43.0549 47.325 42.5714C47.8583 42.0659 48.3806 41.5824 48.8917 41.1209C49.425 40.6593 49.8694 40.1648 50.225 39.6374C50.6028 39.1099 50.7917 38.5824 50.7917 38.0549C50.7917 36.7802 49.9694 36.1429 48.325 36.1429C46.725 36.1429 45.525 37.0659 44.725 38.9121L40.125 36.3077C40.8583 34.6374 41.9694 33.3407 43.4583 32.4176C44.9694 31.4725 46.6583 31 48.525 31C50.5694 31 52.3472 31.5934 53.8583 32.7802C55.3694 33.967 56.125 35.5714 56.125 37.5934C56.125 38.4945 55.9361 39.3407 55.5583 40.1319C55.2028 40.9231 54.7583 41.5934 54.225 42.1429C53.7139 42.6923 53.1917 43.1978 52.6583 43.6593C52.1472 44.1209 51.7028 44.5714 51.325 45.011C50.9694 45.4505 50.7917 45.8791 50.7917 46.2967H45.4583ZM50.3583 54.0769C49.7361 54.6923 48.9917 55 48.125 55C47.2583 55 46.5139 54.6923 45.8917 54.0769C45.2694 53.4615 44.9583 52.7253 44.9583 51.8681C44.9583 51.011 45.2694 50.2747 45.8917 49.6593C46.5139 49.044 47.2583 48.7363 48.125 48.7363C48.9917 48.7363 49.7361 49.044 50.3583 49.6593C50.9806 50.2747 51.2917 51.011 51.2917 51.8681C51.2917 52.7253 50.9806 53.4615 50.3583 54.0769Z" fill="#8218F4"/>
<defs>
<linearGradient id="paint0_linear_1821_32120" x1="36.125" y1="0" x2="36.125" y2="72" gradientUnits="userSpaceOnUse">
<stop stop-color="#7B00FF"/>
<stop offset="1" stop-color="#FF0000"/>
</linearGradient>
</defs>
</svg>
