<svg width="27" height="27" viewBox="0 0 27 27" fill="none" xmlns="http://www.w3.org/2000/svg">
<mask id="mask0" style="mask-type:alpha" maskUnits="userSpaceOnUse" x="-1" y="0" width="28" height="27">
<path d="M13.2024 2.35073e-05C13.8585 -0.00334772 14.4909 0.356041 14.8099 0.978499L14.8264 1.0115L26.2274 24.4007C26.4446 24.8462 26.4697 25.362 26.2968 25.8267C25.953 26.7504 24.9362 27.2242 24.0145 26.8961L23.9849 26.8852L13.205 22.836L2.42544 26.8852C1.49608 27.2343 0.460994 26.7604 0.113524 25.8267C-0.0594046 25.362 -0.0343309 24.8462 0.182853 24.4007L11.5839 1.0115C11.8922 0.378984 12.5199 0.00849763 13.176 0.000144346L13.2024 2.35073e-05ZM13.4024 10.4655C13.2244 10.3774 13.009 10.4509 12.9213 10.6298L10.4058 15.7599C10.4018 15.7681 10.3981 15.7765 10.3947 15.7849C10.3207 15.97 10.4101 16.1802 10.5942 16.2544L13.1098 17.2692C13.1957 17.3039 13.2916 17.3039 13.3775 17.2692L15.8931 16.2544C15.9015 16.251 15.9098 16.2473 15.918 16.2433C16.096 16.1552 16.1692 15.9388 16.0815 15.7599L13.566 10.6298C13.531 10.5584 13.4735 10.5006 13.4024 10.4655Z" fill="white"/>
</mask>
<g mask="url(#mask0)">
<path d="M13.2024 2.35073e-05C13.8585 -0.00334772 14.4909 0.356041 14.8099 0.978499L14.8264 1.0115L26.2274 24.4007C26.4446 24.8462 26.4697 25.362 26.2968 25.8267C25.953 26.7504 24.9362 27.2242 24.0145 26.8961L23.9849 26.8852L13.205 22.836L2.42544 26.8852C1.49608 27.2343 0.460994 26.7604 0.113524 25.8267C-0.0594046 25.362 -0.0343309 24.8462 0.182853 24.4007L11.5839 1.0115C11.8922 0.378984 12.5199 0.00849763 13.176 0.000144346L13.2024 2.35073e-05ZM13.4024 10.4655C13.2244 10.3774 13.009 10.4509 12.9213 10.6298L10.4058 15.7599C10.4018 15.7681 10.3981 15.7765 10.3947 15.7849C10.3207 15.97 10.4101 16.1802 10.5942 16.2544L13.1098 17.2692C13.1957 17.3039 13.2916 17.3039 13.3775 17.2692L15.8931 16.2544C15.9015 16.251 15.9098 16.2473 15.918 16.2433C16.096 16.1552 16.1692 15.9388 16.0815 15.7599L13.566 10.6298C13.531 10.5584 13.4735 10.5006 13.4024 10.4655Z" fill="white" fill-opacity="0.9"/>
<path opacity="0.8" fill-rule="evenodd" clip-rule="evenodd" d="M14.8113 1.01259L22.6721 17.1664C23.1079 18.062 22.7386 19.1429 21.8472 19.5808C21.7951 19.6064 21.7417 19.6294 21.6873 19.6499L2.42544 26.8852C1.49608 27.2343 0.460994 26.7604 0.113524 25.8267C-0.0594046 25.362 -0.0343309 24.8462 0.182853 24.4007L11.5839 1.0115C12.0203 0.116245 13.0964 -0.254078 13.9875 0.184361C14.3461 0.360795 14.636 0.652213 14.8113 1.01259Z" fill="#2E54FF"/>
<path fill-rule="evenodd" clip-rule="evenodd" d="M11.5988 1.01259L3.73804 17.1664C3.30225 18.062 3.67157 19.1429 4.56294 19.5808C4.6151 19.6064 4.66847 19.6294 4.72286 19.6499L23.9847 26.8852C24.9141 27.2343 25.9492 26.7604 26.2966 25.8267C26.4696 25.362 26.4445 24.8462 26.2273 24.4007L14.8262 1.0115C14.3898 0.116245 13.3137 -0.254078 12.4226 0.184361C12.064 0.360795 11.7742 0.652213 11.5988 1.01259Z" fill="#2E54FF"/>
<path fill-rule="evenodd" clip-rule="evenodd" d="M13.2068 0L13.2364 0.00039918C13.4893 0.00579402 13.7451 0.0652145 13.9872 0.184356C14.3458 0.360789 14.6357 0.652208 14.8111 1.01259L22.6718 17.1664C23.1076 18.062 22.7383 19.1429 21.8469 19.5807C21.7948 19.6064 21.7414 19.6294 21.687 19.6499L13.2049 22.836L4.72272 19.6499C4.68193 19.6345 4.64171 19.6177 4.60215 19.5995L4.5628 19.5807C3.67143 19.1429 3.30211 18.062 3.7379 17.1664L11.5987 1.01259C11.774 0.652208 12.0639 0.360789 12.4225 0.184356C12.6753 0.0599539 12.9431 0.000663061 13.2068 0Z" fill="#2E54FF"/>
</g>
</svg>
